<svg width="285" height="285" viewBox="0 0 285 285" fill="none" xmlns="http://www.w3.org/2000/svg">
<rect width="285" height="285" rx="67.59" fill="url(#paint0_linear_44_51)"/>
<g filter="url(#filter0_d_44_51)">
<path d="M143.636 86.475H167.533V159.875C167.533 168.116 165.564 175.328 161.628 181.509C157.728 187.69 152.264 192.51 145.237 195.968C138.209 199.39 130.023 201.1 120.678 201.1C111.296 201.1 103.091 199.39 96.0642 195.968C89.0369 192.51 83.5733 187.69 79.6734 181.509C75.7734 175.328 73.8235 168.116 73.8235 159.875V86.475H97.7199V157.833C97.7199 162.138 98.658 165.964 100.534 169.312C102.448 172.66 105.133 175.291 108.592 177.204C112.05 179.117 116.079 180.074 120.678 180.074C125.314 180.074 129.343 179.117 132.764 177.204C136.223 175.291 138.89 172.66 140.766 169.312C142.68 165.964 143.636 162.138 143.636 157.833V86.475ZM211.09 86.475V199.5H187.193V86.475H211.09Z" fill="white"/>
</g>
<defs>
<filter id="filter0_d_44_51" x="71.8808" y="85.5037" width="141.152" height="118.511" filterUnits="userSpaceOnUse" color-interpolation-filters="sRGB">
<feFlood flood-opacity="0" result="BackgroundImageFix"/>
<feColorMatrix in="SourceAlpha" type="matrix" values="0 0 0 0 0 0 0 0 0 0 0 0 0 0 0 0 0 0 127 0" result="hardAlpha"/>
<feOffset dy="0.971308"/>
<feGaussianBlur stdDeviation="0.971308"/>
<feComposite in2="hardAlpha" operator="out"/>
<feColorMatrix type="matrix" values="0 0 0 0 0 0 0 0 0 0 0 0 0 0 0 0 0 0 0.25 0"/>
<feBlend mode="normal" in2="BackgroundImageFix" result="effect1_dropShadow_44_51"/>
<feBlend mode="normal" in="SourceGraphic" in2="effect1_dropShadow_44_51" result="shape"/>
</filter>
<linearGradient id="paint0_linear_44_51" x1="263.336" y1="19.7382" x2="101.098" y2="219.046" gradientUnits="userSpaceOnUse">
<stop stop-color="#4932D3"/>
<stop offset="0.432724" stop-color="#871CBA"/>
<stop offset="1" stop-color="#FF537C"/>
</linearGradient>
</defs>
</svg>
