<svg width="218" height="499" viewBox="0 0 218 499" fill="none" xmlns="http://www.w3.org/2000/svg">
<path d="M133.147 166.972C134.954 171.591 135.858 175.708 135.858 179.323C135.858 189.565 130.435 195.087 119.591 195.891C115.374 195.891 111.056 194.786 106.638 192.577C104.629 188.159 103.625 184.042 103.625 180.226C103.625 169.583 109.148 164.16 120.193 163.959C124.411 163.959 128.728 164.964 133.147 166.972ZM178.633 166.972C180.441 171.591 181.344 175.708 181.344 179.323C181.344 189.565 175.922 195.087 165.078 195.891C160.86 195.891 156.543 194.786 152.124 192.577C150.116 188.159 149.112 184.042 149.112 180.226C149.112 169.583 154.635 164.16 165.68 163.959C169.897 163.959 174.215 164.964 178.633 166.972ZM12.0495 320C12.0495 308.955 13.6561 299.516 16.8692 291.684C20.2833 283.852 24.2997 277.827 28.9187 273.61C33.7385 269.392 38.257 267.284 42.4744 267.284C45.8884 267.284 48.6999 268.388 50.909 270.597C47.2941 275.216 44.1814 281.341 41.5706 288.973C38.9599 296.403 37.6546 305.139 37.6546 315.18C37.6546 331.447 43.1772 343.296 54.2226 350.726C65.4687 358.357 81.6351 362.173 102.722 362.173C128.427 362.173 147.204 357.755 159.053 348.919C170.902 340.283 177.83 328.736 179.838 314.277C171.404 318.895 160.358 321.205 146.702 321.205C130.034 321.205 116.177 316.184 105.132 306.143C94.287 296.102 88.8648 282.948 88.8648 266.681C88.8648 250.615 93.8854 237.06 103.927 226.014C113.968 214.969 126.921 209.446 142.786 209.446C161.262 209.446 176.023 217.379 187.068 233.244C198.314 248.908 203.937 270.497 203.937 298.01C203.937 330.342 195.804 354.14 179.537 369.403C163.471 384.665 137.665 392.297 102.119 392.297C71.1922 392.297 48.3987 386.071 33.7385 373.62C19.2791 361.169 12.0495 343.296 12.0495 320ZM109.951 266.982C109.951 283.852 122.302 292.688 147.003 293.491C160.057 293.491 171.002 291.182 179.838 286.563C179.035 271.3 175.219 259.451 168.391 251.017C161.563 242.381 152.627 238.064 141.581 238.064C132.343 238.064 124.712 240.875 118.687 246.498C112.863 252.121 109.951 258.949 109.951 266.982Z" fill="#08C136"/>
<path d="M100.547 246.914C100.547 234.541 110.578 224.509 122.952 224.509H162.161C174.535 224.509 184.566 234.541 184.566 246.914V286.123C184.566 298.497 174.535 308.528 162.161 308.528H122.952C110.578 308.528 100.547 298.497 100.547 286.123V246.914Z" fill="#08C136"/>
<path fill-rule="evenodd" clip-rule="evenodd" d="M119.591 245.794C119.591 242.546 121.841 239.913 124.615 239.913H160.498C163.273 239.913 165.522 242.546 165.522 245.794C165.522 249.042 163.273 251.676 160.498 251.676H124.615C121.841 251.676 119.591 249.042 119.591 245.794Z" fill="white"/>
<path fill-rule="evenodd" clip-rule="evenodd" d="M115.671 266.519C115.671 263.271 118.304 260.638 121.552 260.638H163.561C166.809 260.638 169.443 263.271 169.443 266.519C169.443 269.767 166.809 272.4 163.561 272.4H121.552C118.304 272.4 115.671 269.767 115.671 266.519Z" fill="white"/>
<path fill-rule="evenodd" clip-rule="evenodd" d="M119.591 287.244C119.591 283.995 121.841 281.362 124.615 281.362H160.498C163.273 281.362 165.522 283.995 165.522 287.244C165.522 290.492 163.273 293.125 160.498 293.125H124.615C121.841 293.125 119.591 290.492 119.591 287.244Z" fill="white"/>
</svg>
